<svg width="68" height="68" viewBox="0 0 68 68" fill="none" xmlns="http://www.w3.org/2000/svg">
<path d="M34.0001 62.3333C18.3591 62.3162 5.68392 49.641 5.66675 34V33.4333C5.97822 17.8628 18.7981 5.46255 34.3703 5.66917C49.9426 5.87579 62.4289 18.6119 62.3271 34.1851C62.2254 49.7584 49.5737 62.3302 34.0001 62.3333ZM33.9547 56.6667H34.0001C46.5141 56.6542 56.6503 46.5027 56.6441 33.9887C56.6378 21.4747 46.4914 11.3334 33.9774 11.3334C21.4634 11.3334 11.317 21.4747 11.3107 33.9887C11.3045 46.5027 21.4407 56.6542 33.9547 56.6667ZM36.8334 51H31.1667V45.3333H36.8334V51ZM36.8334 42.5H31.1667C31.0772 38.8101 32.9975 35.3623 36.1817 33.4957C38.0518 32.062 39.6667 30.8267 39.6667 28.3333C39.6667 25.2037 37.1297 22.6667 34.0001 22.6667C30.8705 22.6667 28.3334 25.2037 28.3334 28.3333H22.6667V28.0783C22.7123 24.0293 24.9145 20.3122 28.4438 18.3271C31.9732 16.3421 36.2934 16.3907 39.7772 18.4546C43.2609 20.5186 45.379 24.2843 45.3334 28.3333C45.1305 31.3906 43.4908 34.1707 40.9134 35.8275C38.5836 37.2901 37.0735 39.7597 36.8334 42.5Z" fill="white"/>
</svg>
