<svg width="303" height="100" viewBox="0 0 303 100" fill="none" xmlns="http://www.w3.org/2000/svg">
<g clip-path="url(#clip0_1210_64)">
<path d="M49.7475 100.09L50 100.237L50.2525 100.09L99.7525 71.1296L100 70.9848V70.698V29.3V29.0132L99.7525 28.8684L50.2525 -0.0905669L50 -0.238279L49.7475 -0.0905631L0.247512 28.8694L0 29.0142V29.301V70.699V70.9858L0.247518 71.1306L49.7475 100.09ZM50 96.7627L3 69.2662V30.7348L50 3.23828L97 30.7348V69.2662L50 96.7627Z" fill="#2C7BE5" stroke="#2C7BE5"/>
<path d="M51 98.876H51.5V98.376V59.1088L99.2575 31.1696L99.689 30.9171L99.4366 30.4856L98.4266 28.7586L98.1741 28.3269L97.7425 28.5794L50 56.5117L2.25749 28.5794L1.82585 28.3269L1.57339 28.7586L0.563387 30.4856L0.311006 30.9171L0.742516 31.1696L48.5 59.1088V98.376V98.876H49H51Z" fill="#2C7BE5" stroke="#2C7BE5"/>
<path d="M28.494 14.082L76.994 42.457L71.506 45.667L23.006 17.292" fill="#2C7BE5"/>
<path d="M71.507 46.246L71.254 46.098L22.754 17.724L23.259 16.861L71.507 45.087L76.003 42.457L28.241 14.514L28.746 13.65L77.983 42.457L71.507 46.246Z" fill="#2C7BE5"/>
<path d="M71.506 45.667V57.982H71.51L76.993 54.775V42.457" fill="#2C7BE5"/>
<path d="M71.006 45.667H72.006V57.113L76.493 54.487V42.457H77.493V55.062L71.646 58.482L71 58.85" fill="#2C7BE5"/>
</g>
<path d="M133.1 67C132.767 67 132.483 66.8833 132.25 66.65C132.017 66.4167 131.9 66.1333 131.9 65.8V33.25C131.9 32.8833 132 32.5833 132.2 32.35C132.433 32.1167 132.733 32 133.1 32H145.3C155.1 32 160.1 36.5333 160.3 45.6C160.367 47.5333 160.4 48.8333 160.4 49.5C160.4 50.1333 160.367 51.4167 160.3 53.35C160.167 58.0167 158.917 61.4667 156.55 63.7C154.183 65.9 150.517 67 145.55 67H133.1ZM145.3 61.25C148.1 61.25 150.117 60.6333 151.35 59.4C152.583 58.1333 153.233 56.0667 153.3 53.2C153.367 51.2 153.4 49.95 153.4 49.45C153.4 48.9167 153.367 47.6833 153.3 45.75C153.233 43.0167 152.533 41 151.2 39.7C149.9 38.4 147.85 37.75 145.05 37.75H138.85V61.25H145.3ZM175.321 67C174.988 67 174.705 66.8833 174.471 66.65C174.238 66.4167 174.121 66.1333 174.121 65.8V38.15H164.871C164.538 38.15 164.255 38.0333 164.021 37.8C163.788 37.5667 163.671 37.2833 163.671 36.95V33.25C163.671 32.8833 163.771 32.5833 163.971 32.35C164.205 32.1167 164.505 32 164.871 32H190.371C190.738 32 191.038 32.1167 191.271 32.35C191.505 32.5833 191.621 32.8833 191.621 33.25V36.95C191.621 37.2833 191.505 37.5667 191.271 37.8C191.038 38.0333 190.738 38.15 190.371 38.15H181.171V65.8C181.171 66.1333 181.055 66.4167 180.821 66.65C180.588 66.8833 180.288 67 179.921 67H175.321ZM208.1 67C207.767 67 207.483 66.8833 207.25 66.65C207.017 66.4167 206.9 66.1333 206.9 65.8V33.25C206.9 32.8833 207 32.5833 207.2 32.35C207.433 32.1167 207.733 32 208.1 32H222.6C226.5 32 229.4 32.8667 231.3 34.6C233.233 36.3 234.2 38.6333 234.2 41.6C234.2 43.3333 233.767 44.8167 232.9 46.05C232.067 47.25 231.083 48.1167 229.95 48.65C231.35 49.2833 232.517 50.3167 233.45 51.75C234.417 53.1833 234.9 54.8167 234.9 56.65C234.9 59.75 233.85 62.25 231.75 64.15C229.683 66.05 226.767 67 223 67H208.1ZM221.7 46.35C223.433 46.35 224.75 45.9333 225.65 45.1C226.55 44.2667 227 43.15 227 41.75C227 40.3167 226.55 39.2167 225.65 38.45C224.75 37.65 223.433 37.25 221.7 37.25H213.85V46.35H221.7ZM222.2 61.7C223.933 61.7 225.283 61.2333 226.25 60.3C227.217 59.3333 227.7 58.1167 227.7 56.65C227.7 55.15 227.217 53.9333 226.25 53C225.283 52.0333 223.933 51.55 222.2 51.55H213.85V61.7H222.2ZM254.627 67.5C250.094 67.5 246.561 66.35 244.027 64.05C241.494 61.75 240.161 58.3333 240.027 53.8C239.994 52.8333 239.977 51.4167 239.977 49.55C239.977 47.65 239.994 46.2167 240.027 45.25C240.161 40.8167 241.527 37.4167 244.127 35.05C246.727 32.6833 250.227 31.5 254.627 31.5C259.027 31.5 262.527 32.6833 265.127 35.05C267.761 37.4167 269.144 40.8167 269.277 45.25C269.344 47.1833 269.377 48.6167 269.377 49.55C269.377 50.45 269.344 51.8667 269.277 53.8C269.111 58.3333 267.761 61.75 265.227 64.05C262.694 66.35 259.161 67.5 254.627 67.5ZM254.627 61.75C256.861 61.75 258.644 61.0833 259.977 59.75C261.311 58.3833 262.027 56.3167 262.127 53.55C262.194 51.55 262.227 50.2 262.227 49.5C262.227 48.7333 262.194 47.3833 262.127 45.45C262.027 42.6833 261.311 40.6333 259.977 39.3C258.644 37.9333 256.861 37.25 254.627 37.25C252.427 37.25 250.661 37.9333 249.327 39.3C247.994 40.6333 247.277 42.6833 247.177 45.45C247.144 46.4167 247.127 47.7667 247.127 49.5C247.127 51.2 247.144 52.55 247.177 53.55C247.277 56.3167 247.977 58.3833 249.277 59.75C250.611 61.0833 252.394 61.75 254.627 61.75ZM272.626 67C272.326 67 272.076 66.9 271.876 66.7C271.676 66.5 271.576 66.25 271.576 65.95C271.576 65.75 271.626 65.55 271.726 65.35L282.926 49.15L272.426 33.65C272.326 33.4833 272.276 33.2833 272.276 33.05C272.276 32.75 272.376 32.5 272.576 32.3C272.776 32.1 273.026 32 273.326 32H278.426C279.026 32 279.542 32.3167 279.976 32.95L287.326 43.75L294.726 32.95C295.159 32.3167 295.676 32 296.276 32H301.126C301.426 32 301.676 32.1 301.876 32.3C302.076 32.5 302.176 32.75 302.176 33.05C302.176 33.2833 302.109 33.4833 301.976 33.65L291.526 49.15L302.726 65.35C302.859 65.6167 302.926 65.8167 302.926 65.95C302.926 66.25 302.809 66.5 302.576 66.7C302.376 66.9 302.142 67 301.876 67H296.576C295.942 67 295.442 66.7 295.076 66.1L287.076 54.8L279.226 66.1C278.792 66.7 278.276 67 277.676 67H272.626Z" fill="#283E59"/>
<defs>
<clipPath id="clip0_1210_64">
<rect width="100" height="100" fill="white"/>
</clipPath>
</defs>
</svg>
